# xmcd CD database file
#
# Track frame offsets:
#	150
#	28680
#	57247
#	82901
#	119588
#	149856
#	170374
#	195441
#	221988
#
# Disc length: 3355 seconds
#
# Revision: 3
# Processed by: cddbd v1.5.2PL0 Copyright (c) Steve Scherf et al.
# Submitted via: CDex 1.70beta2
#
DISCID=860d1909
DTITLE=Kenny Wheeler - Brian Dickinson - Still Waters
DYEAR=2005
DGENRE=Jazz
TTITLE0=The Forks
TTITLE1=Still Waters
TTITLE2=Kind Folk
TTITLE3=Remembrance (For M.P.)
TTITLE4=Winter Suite
TTITLE5=Spring Sprung In
TTITLE6=Phrase One
TTITLE7=Springs Eternal
TTITLE8=Gentle Piece
EXTD=YEAR: 2005
EXTT0=
EXTT1=
EXTT2=
EXTT3=
EXTT4=
EXTT5=
EXTT6=
EXTT7=
EXTT8=
PLAYORDER=
